<svg xmlns="http://www.w3.org/2000/svg" viewBox="0 0 30 30"><defs><style>.cls-1{fill:#32cdfd;}.cls-2{fill:#fff;}</style></defs><title>Asset 2</title><g id="Layer_2" data-name="Layer 2"><g id="Layer_1-2" data-name="Layer 1"><rect class="cls-1" width="30" height="30" rx="3.08" ry="3.08"/><path class="cls-2" d="M23.56,9.69a6.78,6.78,0,0,1-2,.55A3.48,3.48,0,0,0,23.09,8.3a7.18,7.18,0,0,1-2.23.86,3.52,3.52,0,0,0-6.08,2.4,3.57,3.57,0,0,0,.09.8A10,10,0,0,1,7.63,8.69a3.53,3.53,0,0,0,1.09,4.69,3.53,3.53,0,0,1-1.59-.44v0a3.51,3.51,0,0,0,2.81,3.44,3.46,3.46,0,0,1-.92.13,3.51,3.51,0,0,1-.66-.07,3.51,3.51,0,0,0,3.28,2.44,7.06,7.06,0,0,1-4.36,1.5,5.75,5.75,0,0,1-.84-.05A10,10,0,0,0,21.82,12l0-.45A7.08,7.08,0,0,0,23.56,9.69Z"/></g></g></svg>