<?xml version="1.0" encoding="utf-8"?>
<!-- Generator: Adobe Illustrator 23.0.1, SVG Export Plug-In . SVG Version: 6.00 Build 0)  -->
<svg version="1.1" id="Layer_1" xmlns="http://www.w3.org/2000/svg" xmlns:xlink="http://www.w3.org/1999/xlink" x="0px" y="0px"
	 viewBox="0 0 39.9 32.4" style="enable-background:new 0 0 39.9 32.4;" xml:space="preserve">
<style type="text/css">
	.st0{fill-rule:evenodd;clip-rule:evenodd;fill:#bf006b;}
</style>
<path id="Layer_45" class="st0" d="M20,22c-3.3,0-6-2.7-6-6s2.7-6,6-6s6,2.7,6,6C26,19.3,23.3,22,20,22 M20,12.4
	c-1.9,0-3.5,1.6-3.5,3.5s1.6,3.5,3.5,3.5s3.5-1.6,3.5-3.5C23.5,14,21.9,12.4,20,12.4 M11.4,24.8c-2.7-2.1-4.3-5.4-4.3-8.8
	c0-3.3,1.5-6.3,3.9-8.5l1.7,1.8c-1.9,1.7-3,4.1-3.1,6.6c0.1,2.7,1.3,5.2,3.4,6.9L11.4,24.8z M8,32.4C-1.1,25.2-2.7,12,4.5,2.9
	c0.8-1.1,1.8-2,2.8-2.9L9,1.8C1.3,8.4,0.3,20,6.9,27.7c0.9,1,1.8,1.9,2.9,2.7L8,32.4z M28.6,24.8L27,22.9c2.1-1.7,3.3-4.2,3.4-6.9
	c-0.1-2.5-1.2-4.9-3.1-6.6L29,7.6c2.4,2.1,3.8,5.2,3.9,8.4C32.9,19.4,31.3,22.7,28.6,24.8 M31.9,32.4l-1.6-1.9
	c4.4-3.6,7.1-8.9,7.2-14.6c-0.1-5.4-2.4-10.5-6.5-14l1.7-1.8c4.6,4,7.2,9.7,7.2,15.8C39.8,22.3,36.9,28.4,31.9,32.4"/>
</svg>
