<?xml version="1.0" encoding="UTF-8"?>
<svg width="48px" height="48px" viewBox="0 0 48 48" version="1.1" xmlns="http://www.w3.org/2000/svg" xmlns:xlink="http://www.w3.org/1999/xlink">
    <!-- Generator: Sketch 53.2 (72643) - https://sketchapp.com -->
    <title>ic_pause</title>
    <desc>Created with Sketch.</desc>
    <g id="ic_pause" stroke="none" stroke-width="1" fill="none" fill-rule="evenodd">
        <circle id="Oval" fill="#000000" opacity="0.5" cx="24" cy="24" r="24"></circle>
        <g id="Pause" transform="translate(3.000000, 3.000000)" fill="#FFFFFF" fill-rule="nonzero">
            <path d="M15.3824548,14.9031581 C15.3824548,14.4199089 15.7742057,14.0281581 16.2574548,14.0281581 C16.740704,14.0281581 17.1324548,14.4199089 17.1324548,14.9031581 L17.1324548,27.0967065 C17.1324548,27.5799556 16.740704,27.9717065 16.2574548,27.9717065 C15.7742057,27.9717065 15.3824548,27.5799556 15.3824548,27.0967065 L15.3824548,14.9031581 Z" id="Stroke-1"></path>
            <path d="M24.1895839,14.9031581 C24.1895839,14.4199089 24.5813347,14.0281581 25.0645839,14.0281581 C25.547833,14.0281581 25.9395839,14.4199089 25.9395839,14.9031581 L25.9395839,27.0967065 C25.9395839,27.5799556 25.547833,27.9717065 25.0645839,27.9717065 C24.5813347,27.9717065 24.1895839,27.5799556 24.1895839,27.0967065 L24.1895839,14.9031581 Z" id="Stroke-2"></path>
            <path d="M34.6116976,7.38918424 C27.0941039,-0.129651419 14.9059526,-0.129651419 7.3889287,7.38923534 C-0.129651419,14.9059526 -0.129651419,27.0934265 7.38923534,34.6110713 C14.9059526,42.1296514 27.0941039,42.1296514 34.6116465,34.6108669 C42.1296685,27.0934659 42.1296685,14.9059132 34.6116976,7.38918424 Z M35.8490323,6.15164516 C44.0505484,14.3518065 44.0505484,27.6475161 35.8490323,35.8483548 C27.6481935,44.0505484 14.3518065,44.0505484 6.15164516,35.8483548 C-2.05054839,27.6475161 -2.05054839,14.3518065 6.15164516,6.15164516 C14.3518065,-2.05054839 27.6481935,-2.05054839 35.8490323,6.15164516 Z" id="Stroke-3"></path>
        </g>
    </g>
</svg>