<?xml version="1.0" encoding="utf-8"?>
<!-- Generator: Adobe Illustrator 23.0.1, SVG Export Plug-In . SVG Version: 6.00 Build 0)  -->
<svg version="1.1" id="Layer_1" xmlns="http://www.w3.org/2000/svg" xmlns:xlink="http://www.w3.org/1999/xlink" x="0px" y="0px"
	 viewBox="0 0 36.4 31.2" style="enable-background:new 0 0 36.4 31.2;" xml:space="preserve">
<style type="text/css">
	.st0{fill-rule:evenodd;clip-rule:evenodd;fill:#bf006b;}
</style>
<path id="Shows" class="st0" d="M35.2,26.2h-34C0.5,26.2,0,25.6,0,25V1.2C0,0.5,0.5,0,1.2,0h34c0.7,0,1.2,0.5,1.2,1.2V25
	C36.4,25.6,35.9,26.2,35.2,26.2C35.3,26.2,35.2,26.2,35.2,26.2 M2.4,23.7h31.5V2.5H2.4V23.7z M29.7,31.2h-23c-0.7,0-1.2-0.5-1.2-1.2
	c0-0.6,0.6-1.2,1.2-1.2h23c0.7,0,1.2,0.5,1.2,1.2C30.9,30.7,30.4,31.2,29.7,31.2"/>
</svg>
