<?xml version="1.0" encoding="utf-8"?>
<!-- Generator: Adobe Illustrator 21.1.0, SVG Export Plug-In . SVG Version: 6.00 Build 0)  -->
<svg version="1.1" id="Layer_1" xmlns="http://www.w3.org/2000/svg" xmlns:xlink="http://www.w3.org/1999/xlink" x="0px" y="0px"
	 viewBox="0 0 24 24" style="enable-background:new 0 0 24 24;" xml:space="preserve">
<style type="text/css">
	.st0{fill:#BF006B;}
	.st1{fill:#BBB7BC;}
	.st2{fill:#EEEEEE;}
	.st3{fill:#FFFFFF;}
	.st4{fill:none;stroke:#FFFFFF;stroke-miterlimit:10;}
	.st5{fill:#FFFFFF;stroke:#333333;stroke-width:2;stroke-miterlimit:10;}
	.st6{fill:#FFFFFF;stroke:#000000;stroke-width:3;stroke-miterlimit:10;}
	.st7{clip-path:url(#SVGID_2_);fill:#EEEEEE;}
	.st8{fill:#500130;}
	.st9{fill:none;stroke:#EEEEEE;stroke-width:2;stroke-miterlimit:10;}
	.st10{fill:none;stroke:#EEEEEE;stroke-miterlimit:10;}
	.st11{fill:none;stroke:#A6A6A6;stroke-width:1.0968;stroke-miterlimit:10;}
	.st12{fill:none;stroke:#8B848D;stroke-width:1.2;stroke-miterlimit:10;}
	.st13{fill:none;stroke:#231F20;stroke-width:3;stroke-miterlimit:10;}
	.st14{fill:#231F20;stroke:#FFFFFF;stroke-width:2;stroke-miterlimit:10;}
	.st15{fill:none;}
	.st16{fill:#231F20;}
	.st17{fill:#333333;}
	.st18{fill:#BF006B;stroke:#BF006B;stroke-width:0.8;stroke-miterlimit:10;}
	.st19{fill:#030202;}
	.st20{fill:#6E6E6E;}
	.st21{fill:none;stroke:#BF006B;stroke-width:2;stroke-miterlimit:10;}
	.st22{fill:#636363;}
	.st23{fill:none;stroke:#C0006B;stroke-width:2;stroke-miterlimit:10;}
</style>
<g>
	<g>
		<g>
			<path class="st2" d="M12.1,19.8c-0.1,0-0.2,0-0.4-0.1C11,19.5,7.2,18,5.1,14.9C3.8,13,3.2,10.7,3.5,8.8c0.2-1.5,0.9-2.6,2.1-3.5
				c1-0.7,2-1.1,3.1-1.1c1.5,0,2.7,0.8,3.3,1.4c1.6-1.3,4.1-2.1,6.7-0.3c1,0.7,1.6,1.7,1.8,3c0.4,2-0.3,4.5-1.7,6.5
				c-2,3.2-5.6,4.6-6.2,4.8C12.4,19.8,12.3,19.8,12.1,19.8z M8.7,5.5c-0.8,0-1.6,0.3-2.3,0.9C5.5,7,4.9,7.8,4.7,9
				c-0.2,1.6,0.2,3.5,1.4,5.1c1.9,2.8,5.3,4.1,6.1,4.4c0.7-0.2,3.8-1.6,5.6-4.3c1.2-1.8,1.7-4,1.5-5.6c-0.2-1-0.6-1.7-1.3-2.2
				c-2.8-2-5.1,0.1-5.5,0.6L12,7.5L11.5,7C11.2,6.6,10.2,5.5,8.7,5.5z"/>
		</g>
	</g>
</g>
</svg>
