<svg id="Layer_1" data-name="Layer 1" xmlns="http://www.w3.org/2000/svg" viewBox="0 0 44 44"><defs><style>.cls-1{fill:#fff;}</style></defs><title>cast_icon</title><path class="cls-1" d="M34.69,33.5H21.26V32H34.7a.66.66,0,0,0,.66-.67V12.65A.66.66,0,0,0,34.7,12H9.31a.66.66,0,0,0-.67.67V19.4H7.16V12.65A2.15,2.15,0,0,1,9.31,10.5H34.69a2.15,2.15,0,0,1,2.15,2.15v18.7A2.15,2.15,0,0,1,34.69,33.5Z"/><path class="cls-1" d="M15.25,33.5H13.76a6.6,6.6,0,0,0-6.6-6.9V25.12A8.17,8.17,0,0,1,15.25,33.5Z"/><path class="cls-1" d="M11.39,33.5a4.23,4.23,0,0,0-4.23-4.23V33.5Z"/><path class="cls-1" d="M19,33.5H17.55A10.42,10.42,0,0,0,7.16,23.11V21.63A11.91,11.91,0,0,1,19,33.5Z"/></svg>