<svg xmlns="http://www.w3.org/2000/svg" xmlns:xlink="http://www.w3.org/1999/xlink" viewBox="0 0 20.24 18.18"><defs><clipPath id="clip-path" transform="translate(-1.88 -2.91)"><rect width="24" height="24" fill="none"/></clipPath></defs><title>fav_icon_selected</title><g id="Layer_2" data-name="Layer 2"><g id="Layer_1-2" data-name="Layer 1"><g clip-path="url(#clip-path)"><path d="M12.26,21.09H12c-.94-.31-5.54-2.11-8.12-5.85A10.53,10.53,0,0,1,2,8.06,5.84,5.84,0,0,1,4.3,4.16,5.65,5.65,0,0,1,7.73,2.91,5.66,5.66,0,0,1,11.94,5a6.06,6.06,0,0,1,8-.86,5.16,5.16,0,0,1,2,3.36,11.3,11.3,0,0,1-2,7.73,16.71,16.71,0,0,1-7.57,5.85Z" transform="translate(-1.88 -2.91)" fill="#eee"/></g></g></g></svg>