<svg xmlns="http://www.w3.org/2000/svg" xmlns:xlink="http://www.w3.org/1999/xlink">
	
    <!-- SOCIAL ICONS -->
    <!-- FACEBOOK -->
    <symbol viewBox="0 0 30 30" id="fb_icon">
        <title>fb_icon</title>  
        <g id="Layer_2" data-name="Layer 2"><g id="Layer_1-2" data-name="Layer 1"><path d="M27.5,0H2.5A2.51,2.51,0,0,0,0,2.5v25A2.51,2.51,0,0,0,2.5,30h25A2.51,2.51,0,0,0,30,27.5V2.5A2.51,2.51,0,0,0,27.5,0Z" fill="#6e6e6e"/><path id="f" d="M18.5,15.5,19,13H16.5V11c0-.75.4-1,1.5-1h1V7.5H17A3.23,3.23,0,0,0,13.5,11v2H11v2.5h2.5v7h3v-7Z" fill="#fff"/></g></g>
    </symbol>

    <!-- TWITTER -->
    <symbol viewBox="0 0 30 30" id="twitter_icon">
        <title>twitter_icon</title>  
        <defs><style>.twitter_icon-cls-1{fill:#6e6e6e;}.twitter_icon-cls-2{fill:#fff;}</style></defs>
        <g id="Layer_2" data-name="Layer 2"><g id="Layer_1-2" data-name="Layer 1"><rect class="twitter_icon-cls-1" width="30" height="30" rx="3.08" ry="3.08"/><path class="twitter_icon-cls-2" d="M23.56,9.69a6.78,6.78,0,0,1-2,.55A3.48,3.48,0,0,0,23.09,8.3a7.18,7.18,0,0,1-2.23.86,3.52,3.52,0,0,0-6.08,2.4,3.57,3.57,0,0,0,.09.8A10,10,0,0,1,7.63,8.69a3.53,3.53,0,0,0,1.09,4.69,3.53,3.53,0,0,1-1.59-.44v0a3.51,3.51,0,0,0,2.81,3.44,3.46,3.46,0,0,1-.92.13,3.51,3.51,0,0,1-.66-.07,3.51,3.51,0,0,0,3.28,2.44,7.06,7.06,0,0,1-4.36,1.5,5.75,5.75,0,0,1-.84-.05A10,10,0,0,0,21.82,12l0-.45A7.08,7.08,0,0,0,23.56,9.69Z"/></g></g>
    </symbol>

    <!-- INSTAGRAM -->
    <symbol viewBox="0 0 504.4 504.4" id="insta_icon">
        <title>insta_icon</title>  
        <g>
            <g>
                <path d="M296.8,219.8c-10-14-26.4-23.2-44.8-23.2c-18.4,0-34.8,9.2-44.8,23.2c-6.4,9.2-10.4,20.4-10.4,32.4    c0,30.4,24.8,55.2,55.2,55.2c30.4,0,55.2-24.8,55.2-55.2C307.2,240.2,303.2,229,296.8,219.8z" fill="#6e6e6e"/>
            </g>
        </g>
        <g>
            <g>
                <path d="M331.6,220.2c4,8,6.4,20.8,6.4,32c0,47.2-38.4,86-86,86c-47.6,0-86-38.4-86-86c0-11.6,2.4-24,6.4-32H124v128.4    c0,16.8,14.8,31.6,31.6,31.6h192.8c16.8,0,31.6-14.8,31.6-31.6V220.2H331.6z" fill="#6e6e6e"/>
            </g>
        </g>
        <g>
            <g>
                <polygon points="365.6,131.4 319.2,131.4 319.2,184.6 372,184.6 372,138.2 372,131   " fill="#6e6e6e"/>
            </g>
        </g>
        <g>
            <g>
                <path d="M377.6,0.2H126.4C56.8,0.2,0,57,0,126.6v251.6c0,69.2,56.8,126,126.4,126H378c69.6,0,126.4-56.8,126.4-126.4V126.6    C504,57,447.2,0.2,377.6,0.2z M408,219.8L408,219.8l0,128.8c0,33.6-26,59.6-59.6,59.6H155.6c-33.6,0-59.6-26-59.6-59.6V219.8v-64    c0-33.6,26-59.6,59.6-59.6h192.8c33.6,0,59.6,26,59.6,59.6V219.8z" fill="#6e6e6e"/>
            </g>
        </g>
    </symbol>

    <!-- PLAYER ICONS -->
    <!-- BACK ICON -->
    <symbol viewBox="0 0 24 24" id="back_icon">
        <title>back_icon</title>  
        <defs><style>.back_icon-cls-1{fill:#dfdfdf;}</style></defs>
        <polygon class="back_icon-cls-1" points="13.78 18.21 9.16 12 13.78 5.79 14.84 6.58 10.81 12 14.84 17.42 13.78 18.21"/>
    </symbol>

    <!-- CAST IRON -->
    <symbol viewBox="0 0 44 44" id="cast_icon">
        <title>cast_icon</title> 
        <defs><style>.cast_icon-cls-1{fill:#eee;}</style></defs>
        <path class="cast_icon-cls-1" d="M34.69,33.5H21.26V32H34.7a.66.66,0,0,0,.66-.67V12.65A.66.66,0,0,0,34.7,12H9.31a.66.66,0,0,0-.67.67V19.4H7.16V12.65A2.15,2.15,0,0,1,9.31,10.5H34.69a2.15,2.15,0,0,1,2.15,2.15v18.7A2.15,2.15,0,0,1,34.69,33.5Z"/><path class="cast_icon-cls-1" d="M15.25,33.5H13.76a6.6,6.6,0,0,0-6.6-6.9V25.12A8.17,8.17,0,0,1,15.25,33.5Z"/><path class="cast_icon-cls-1" d="M11.39,33.5a4.23,4.23,0,0,0-4.23-4.23V33.5Z"/><path class="cast_icon-cls-1" d="M19,33.5H17.55A10.42,10.42,0,0,0,7.16,23.11V21.63A11.91,11.91,0,0,1,19,33.5Z"/> 
    </symbol>

    <!-- CC ICON -->
    <symbol viewBox="0 0 44 44" id="CC_icon">
        <title>CC_icon</title>  
        <defs><style>.CC_icon-cls-1{fill:#eee;}</style></defs>
        <path class="CC_icon-cls-1" d="M35,11H9a4,4,0,0,0-4,4V29a4,4,0,0,0,4,4H35a4,4,0,0,0,4-4V15A4,4,0,0,0,35,11ZM20.25,26.79a9.38,9.38,0,0,1-1.2.9c-.5.2-.9.4-1.5.6a7.72,7.72,0,0,1-1.5.2,4.75,4.75,0,0,1-2.4-.6,8.47,8.47,0,0,1-1.9-1.4,8.17,8.17,0,0,1-1.2-2,6.2,6.2,0,0,1-.4-2.3,5.7,5.7,0,0,1,.4-2.2,8.17,8.17,0,0,1,1.2-2,5.53,5.53,0,0,1,1.9-1.4,5.1,5.1,0,0,1,2.5-.5,5.43,5.43,0,0,1,2.9.7,4.69,4.69,0,0,1,1.8,1.9L19,19.89l-.6-.9c-.2-.2-.5-.4-.7-.6s-.5-.2-.8-.3a2.49,2.49,0,0,0-.8-.1,2.93,2.93,0,0,0-1.6.4,4.81,4.81,0,0,0-1.1.9,5.39,5.39,0,0,0-.7,1.3,7.72,7.72,0,0,0-.2,1.5,4.53,4.53,0,0,0,.3,1.6,5.39,5.39,0,0,0,.7,1.3,3.13,3.13,0,0,0,1.1.9,3.34,3.34,0,0,0,1.5.3,2.77,2.77,0,0,0,.9-.1l.9-.3a1.34,1.34,0,0,0,.7-.6,3.49,3.49,0,0,0,.6-.9l1.9,1.1A8.51,8.51,0,0,1,20.25,26.79Zm11.8,0a9.38,9.38,0,0,1-1.2.9c-.5.2-.9.4-1.5.6a7.72,7.72,0,0,1-1.5.2,4.75,4.75,0,0,1-2.4-.6,8.47,8.47,0,0,1-1.9-1.4,8.17,8.17,0,0,1-1.2-2,6.2,6.2,0,0,1-.4-2.3,5.7,5.7,0,0,1,.4-2.2,8.17,8.17,0,0,1,1.2-2,5.53,5.53,0,0,1,1.9-1.4,5.1,5.1,0,0,1,2.5-.5,5.43,5.43,0,0,1,2.9.7,4.69,4.69,0,0,1,1.8,1.9l-1.8,1.2-.6-.9c-.2-.2-.5-.4-.7-.6s-.5-.2-.8-.3a2.49,2.49,0,0,0-.8-.1,2.93,2.93,0,0,0-1.6.4,4.81,4.81,0,0,0-1.1.9,5.39,5.39,0,0,0-.7,1.3,7.72,7.72,0,0,0-.2,1.5,4.53,4.53,0,0,0,.3,1.6,5.39,5.39,0,0,0,.7,1.3,3.13,3.13,0,0,0,1.1.9,3.34,3.34,0,0,0,1.5.3,2.77,2.77,0,0,0,.9-.1l.9-.3a1.34,1.34,0,0,0,.7-.6,3.49,3.49,0,0,0,.6-.9l1.9,1.1A8.51,8.51,0,0,1,32,26.79Z"/>
    </symbol>

    <!-- COLLAPSE SCREEN ICON -->
    <symbol viewBox="0 0 44 44" id="collapse_screen_icon">
        <title>collapse_screen_icon</title>  
        <defs><style>.collapse_screen_icon-cls-1{fill:none;stroke:#eee;stroke-miterlimit:10;stroke-width:2.03px;}</style></defs>
        <polyline class="collapse_screen_icon-cls-1" points="9.5 18.62 18.62 18.62 18.62 13.55"/><polyline class="collapse_screen_icon-cls-1" points="34.5 18.62 25.38 18.62 25.38 13.55"/><polyline class="collapse_screen_icon-cls-1" points="9.5 25.38 18.62 25.38 18.62 30.45"/><polyline class="collapse_screen_icon-cls-1" points="34.5 25.38 25.38 25.38 25.38 30.45"/>
    </symbol>

    <!-- EXPAND SCREEN ICON -->
    <symbol viewBox="0 0 44 44" id="expand_screen_icon">
        <title>expand_screen_icon</title>  
        <defs><style>.expand_screen_icon-cls-1{fill:none;stroke:#eee;stroke-miterlimit:10;stroke-width:2.03px;}</style></defs>
        <polyline class="expand_screen_icon-cls-1" points="18.62 13.55 9.5 13.55 9.5 18.62"/><polyline class="expand_screen_icon-cls-1" points="25.38 13.55 34.5 13.55 34.5 18.62"/><polyline class="expand_screen_icon-cls-1" points="18.62 30.45 9.5 30.45 9.5 25.38"/><polyline class="expand_screen_icon-cls-1" points="25.38 30.45 34.5 30.45 34.5 25.38"/>
    </symbol>

    <!-- FAV ICON NORMAL -->
    <symbol viewBox="0 0 21.24 19.18" id="fav_icon_normal">
        <title>fav_icon_normal</title>  
        <defs><clipPath id="fav_icon_normal-clip-path" transform="translate(-1.38 -2.41)"><rect width="24" height="24" fill="none"/></clipPath></defs>
        <g id="Layer_2" data-name="Layer 2"><g id="Layer_1-2" data-name="Layer 1"><g clip-path="url(#fav_icon_normal-clip-path)"><path d="M12.26,21.09H12c-.94-.31-5.54-2.11-8.12-5.85A10.53,10.53,0,0,1,2,8.06,5.84,5.84,0,0,1,4.3,4.16,5.65,5.65,0,0,1,7.73,2.91,5.66,5.66,0,0,1,11.94,5a6.06,6.06,0,0,1,8-.86,5.16,5.16,0,0,1,2,3.36,11.3,11.3,0,0,1-2,7.73,16.71,16.71,0,0,1-7.57,5.85Z" transform="translate(-1.38 -2.41)" fill="none" stroke="#eee" stroke-miterlimit="10"/></g></g></g>
    </symbol>

    <!-- FAV ICON SELECTED -->
    <symbol viewBox="0 0 20.24 18.18" id="fav_icon_selected">
        <title>fav_icon_selected</title>  
        <defs><clipPath id="fav_icon_selected-clip-path" transform="translate(-1.88 -2.91)"><rect width="24" height="24" fill="none"/></clipPath></defs>
        <g id="Layer_2" data-name="Layer 2"><g id="Layer_1-2" data-name="Layer 1"><g clip-path="url(#fav_icon_selected-clip-path)"><path d="M12.26,21.09H12c-.94-.31-5.54-2.11-8.12-5.85A10.53,10.53,0,0,1,2,8.06,5.84,5.84,0,0,1,4.3,4.16,5.65,5.65,0,0,1,7.73,2.91,5.66,5.66,0,0,1,11.94,5a6.06,6.06,0,0,1,8-.86,5.16,5.16,0,0,1,2,3.36,11.3,11.3,0,0,1-2,7.73,16.71,16.71,0,0,1-7.57,5.85Z" transform="translate(-1.88 -2.91)" fill="#eee"/></g></g></g>
    </symbol>

    <!-- FORWARD ICON -->
    <symbol viewBox="0 0 44 44" id="forward_icon">
        <title>forward_icon</title>  
        <defs><style>.forward_icon-cls-1{fill:#eee;}</style></defs>
        <path class="forward_icon-cls-1" d="M20.49,8.54,17.27,5.32,18.6,4,24,9.39,18.6,14.78l-1.32-1.32,2.93-2.93A11.52,11.52,0,1,0,33.54,21.87h1.89A13.43,13.43,0,1,1,20.49,8.54Z"/><path class="forward_icon-cls-1" d="M17.91,26.6H19.8V17.14H17.93a9.74,9.74,0,0,1-1.13,1.18,3.22,3.22,0,0,1-1.73.85v1.61a7.56,7.56,0,0,0,2.84-1.42Z"/><path class="forward_icon-cls-1" d="M25.22,26.46a2.61,2.61,0,0,0,2.17-.95c.66-.76.95-2.08.95-3.88s-.28-3.12-.95-3.88a2.5,2.5,0,0,0-2.17-.95,2.61,2.61,0,0,0-2.17.95c-.66.76-.95,2.08-.95,3.88a6.18,6.18,0,0,0,.85,3.78A3,3,0,0,0,25.22,26.46Zm-.95-7.19a1.42,1.42,0,0,1,.38-.76.69.69,0,0,1,.57-.19,1.34,1.34,0,0,1,.57.19c.19.09.28.38.38.85a11.08,11.08,0,0,1,.19,2.27A12.24,12.24,0,0,1,26.16,24a1.42,1.42,0,0,1-.38.76,1.34,1.34,0,0,1-.57.19,1.34,1.34,0,0,1-.57-.19c-.19-.09-.28-.38-.38-.85a10.38,10.38,0,0,1-.19-2.27A7.5,7.5,0,0,1,24.27,19.27Z"/>
    </symbol>

    <!-- FULL VOLUME ICON -->
    <symbol viewBox="0 0 44 44" id="full_volume_icon">
        <title>full_volume_icon</title>  
        <defs><style>.full_volume_icon-cls-1{fill:#eee;}</style></defs>
        <title>full_volume</title><path class="full_volume_icon-cls-1" d="M24.35,11.26v2.56a8.55,8.55,0,0,1,0,16.37v2.56a11,11,0,0,0,0-21.48Z"/><path class="full_volume_icon-cls-1" d="M11.1,18.24v7.52h5L22.38,32V12l-6.24,6.24Zm16.69,4.12a5.53,5.53,0,0,0-3.16-5v10A5.34,5.34,0,0,0,27.79,22.36Z"/>
    </symbol>

    <!-- IC EXPAND -->
    <symbol viewBox="0 0 44 44" id="ic_expand">
        <title>ic_expand</title>  
        <defs><style>.ic_expand-cls-1,.ic_expand-cls-2{fill:none;}.ic_expand-cls-2{stroke:#dedede;stroke-linecap:round;stroke-miterlimit:10;stroke-width:3.45px;}</style></defs>
        <rect class="ic_expand-cls-1" width="44" height="44"/><line class="ic_expand-cls-2" x1="32.05" y1="3" x2="41" y2="3"/><line class="ic_expand-cls-2" x1="41" y1="3" x2="41" y2="11.95"/><line class="ic_expand-cls-2" x1="40.4" y1="3.17" x2="27.5" y2="16.5"/><line class="ic_expand-cls-2" x1="11.95" y1="41" x2="3" y2="41"/><line class="ic_expand-cls-2" x1="3" y1="41" x2="3" y2="32.05"/><line class="ic_expand-cls-2" x1="3.6" y1="40.83" x2="16.5" y2="27.5"/>
    </symbol>

    <!-- MODAL CLOSE ICON -->
    <symbol viewBox="0 0 44 44" id="modal_close_icon">
        <title>modal_close_icon</title>  
        <defs><style>.modal_close_icon-cls-1{fill:none;stroke:#999;stroke-miterlimit:10;stroke-width:1.5px;}</style></defs>
        <line class="modal_close_icon-cls-1" x1="13.5" y1="13.5" x2="30.5" y2="30.5"/><line class="modal_close_icon-cls-1" x1="13.5" y1="30.5" x2="30.5" y2="13.5"/>
    </symbol>

    <!-- MORE ICON -->
    <symbol viewBox="0 0 44 44" id="more_icon">
        <title>more_icon</title>  
        <defs><style>.more_icon-cls-1{fill:#eee;}</style></defs>
        <circle class="more_icon-cls-1" cx="22" cy="12.5" r="3"/><circle class="more_icon-cls-1" cx="22" cy="21.5" r="3"/><circle class="more_icon-cls-1" cx="22" cy="31.5" r="3"/>
    </symbol>

    <!-- MUTE ICON -->
    <symbol viewBox="0 0 44 44" id="mute_icon">
        <title>mute_icon</title>  
        <defs><style>.mute_icon-cls-1{fill:#eee;}</style></defs>
        <path class="mute_icon-cls-1" d="M24.35,11.26v2.56a8.55,8.55,0,0,1,0,16.37v2.56a11,11,0,0,0,0-21.48Z"/><path class="mute_icon-cls-1" d="M11.1,18.24v7.52h5L22.38,32V12l-6.24,6.24Zm16.69,4.12a5.53,5.53,0,0,0-3.16-5v10A5.34,5.34,0,0,0,27.79,22.36Z"/><rect class="mute_icon-cls-1" x="20.5" y="7.56" width="2.99" height="28.87" transform="translate(-8.99 19.26) rotate(-39.94)"/>
    </symbol>

    <!-- NEXT ICON -->
    <symbol viewBox="0 0 24 24" id="next_icon">
        <title>next_icon</title>  
       <defs><style>.next_icon-cls-1{fill:#dfdfdf;}</style></defs>
       <polygon class="next_icon-cls-1" points="10.22 5.79 14.84 12 10.22 18.21 9.16 17.42 13.19 12 9.16 6.58 10.22 5.79"/>
    </symbol>

    <!-- PAUSE ICON -->
    <symbol viewBox="0 0 44 44" id="pause_icon">
        <title>pause_icon</title>  
        <defs><style>.pause_icon-cls-1{fill:#eee;}</style></defs>
        <rect class="pause_icon-cls-1" x="15.5" y="11" width="3" height="22"/><rect class="pause_icon-cls-1" x="25.5" y="11" width="3" height="22"/>
    </symbol>

    <!-- PLAY ICON -->
    <symbol viewBox="0 0 44 44" id="play_icon">
        <title>play_icon</title>  
        <defs><style>.play_icon-cls-1{fill:#eee;}</style></defs>
        <path class="play_icon-cls-1" d="M30.62,19.72,16,11.28a2.64,2.64,0,0,0-4,2.28V30.44a2.64,2.64,0,0,0,4,2.28l14.61-8.44A2.64,2.64,0,0,0,30.62,19.72Z"/>
    </symbol>

    <!-- QUALITY ICON -->
    <symbol viewBox="0 0 44 44" id="quality_icon">
        <title>quality_icon</title>  
        <g id="ic_quality"><path d="M33,21.29a.93.93,0,0,0-.75-.78l-1.49-.21a1.21,1.21,0,0,1-.89-.75l-.56-1.36A1.2,1.2,0,0,1,29.37,17l.91-1.21a.88.88,0,0,0,0-1.07l-1-1a.89.89,0,0,0-1.07,0L27,14.63a1.19,1.19,0,0,1-1.16.09l-1.36-.56a1.19,1.19,0,0,1-.75-.89l-.21-1.49a.93.93,0,0,0-.78-.75s-.23,0-.71,0-.7,0-.7,0a.93.93,0,0,0-.78.75l-.21,1.49a1.2,1.2,0,0,1-.75.89l-1.36.56A1.19,1.19,0,0,1,17,14.63l-1.21-.91a.88.88,0,0,0-1.07,0l-1,1a.88.88,0,0,0,0,1.07L14.63,17a1.19,1.19,0,0,1,.09,1.16l-.56,1.36a1.2,1.2,0,0,1-.89.75l-1.49.21a.93.93,0,0,0-.75.78s0,.23,0,.71,0,.71,0,.71a.93.93,0,0,0,.75.78l1.49.21a1.21,1.21,0,0,1,.89.75l.56,1.36A1.19,1.19,0,0,1,14.63,27l-.91,1.21a.82.82,0,0,0-.12.91c.16.2.62.69.62.69l.34.32c.19.17,1,.41,1.26.19L17,29.37a1.19,1.19,0,0,1,1.16-.09l1.36.56a1.2,1.2,0,0,1,.75.89l.21,1.49a.93.93,0,0,0,.78.75s.23,0,.71,0,.71,0,.71,0a.93.93,0,0,0,.78-.75l.21-1.49a1.2,1.2,0,0,1,.75-.89l1.36-.56a1.19,1.19,0,0,1,1.16.09l1.21.91a.89.89,0,0,0,1.07,0l1-1a.89.89,0,0,0,0-1.07L29.37,27a1.2,1.2,0,0,1-.09-1.16l.56-1.36a1.2,1.2,0,0,1,.89-.75l1.49-.21a.93.93,0,0,0,.75-.78s0-.23,0-.71S33,21.29,33,21.29ZM22,26.08A4.09,4.09,0,1,1,26.09,22,4.09,4.09,0,0,1,22,26.08Z" fill="#eee" fill-rule="evenodd"/></g>
    </symbol>

    <!-- REPLAY ICON -->
    <symbol viewBox="0 0 261 261" id="replay_icon">
        <title>replay_icon</title>  
        <defs><style>.replay_icon-cls-1{fill:#ededed;}</style></defs>
        <path class="replay_icon-cls-1" d="M142.92,39.29,169.31,12.9,158.45,2,114.2,46.28l44.25,44.25,10.87-10.87L145.25,55.59c52.32,8.12,91,60.27,77.1,116.24a95,95,0,0,1-76.7,70.41C87,251.52,35.8,205.72,35.8,148.74H20.27c0,62.93,53.67,114.12,117.43,110,57.76-3.74,103.73-53.5,103-111.38A110.13,110.13,0,0,0,142.92,39.29Z"/>
    </symbol>

    <!-- REWIND ICON -->
    <symbol viewBox="0 0 44 44" id="rewind_icon">
        <title>rewind_icon</title>  
        <defs><style>.rewind_icon-cls-1{fill:#eee;}</style></defs>
        <path class="rewind_icon-cls-1" d="M23.51,10.89l3.22-3.22L25.4,6.35,20,11.74l5.39,5.39,1.32-1.32L23.8,12.87A11.52,11.52,0,1,1,10.46,24.22H8.57A13.43,13.43,0,1,0,23.51,10.89Z"/><path class="rewind_icon-cls-1" d="M17.5,29h1.89V19.49H17.53a9.74,9.74,0,0,1-1.13,1.18,3.22,3.22,0,0,1-1.73.85v1.61a7.56,7.56,0,0,0,2.84-1.42Z"/><path class="rewind_icon-cls-1" d="M24.81,28.81A2.61,2.61,0,0,0,27,27.86c.66-.76.95-2.08.95-3.88s-.28-3.12-.95-3.88a2.5,2.5,0,0,0-2.17-.95,2.61,2.61,0,0,0-2.17.95c-.66.76-.95,2.08-.95,3.88a6.18,6.18,0,0,0,.85,3.78A3,3,0,0,0,24.81,28.81Zm-.95-7.19a1.42,1.42,0,0,1,.38-.76.69.69,0,0,1,.57-.19,1.34,1.34,0,0,1,.57.19c.19.09.28.38.38.85A11.08,11.08,0,0,1,25.95,24a12.24,12.24,0,0,1-.19,2.36,1.42,1.42,0,0,1-.38.76,1.34,1.34,0,0,1-.57.19,1.34,1.34,0,0,1-.57-.19c-.19-.09-.28-.38-.38-.85A10.38,10.38,0,0,1,23.68,24,7.5,7.5,0,0,1,23.87,21.62Z"/>
    </symbol>

    <!-- SELECTION TICK IRON  -->
    <symbol viewBox="0 0 24 24" id="selection_tick_icon">
        <title>selection_tick_icon</title>  
        <defs><style>.selection_tick_icon-cls-1{fill:none;stroke:#eee;stroke-miterlimit:10;stroke-width:2px;}</style></defs>
        <polyline class="selection_tick_icon-cls-1" points="7.25 13 9.75 15.5 16.75 8.5"/>
    </symbol>

    <!-- SHARE ICON -->
    <symbol viewBox="0 0 16.07 19.71" id="share_icon">
        <title>share_icon</title>  
        <defs><clipPath id="share_icon-clip-path" transform="translate(-3.97 -2.14)"><rect width="24" height="24" fill="none"/></clipPath></defs>
        <g id="Layer_2" data-name="Layer 2"><g id="Layer_1-2" data-name="Layer 1"><g clip-path="url(#share_icon-clip-path)"><path d="M17,15.82a3,3,0,0,0-2.27,1.08l-5.14-3.4a2.81,2.81,0,0,0,0-2.75L14.9,7.22A3,3,0,0,0,20,5.13a3,3,0,0,0-6,0,2.42,2.42,0,0,0,.24,1.13L8.8,9.91A2.92,2.92,0,0,0,7,9.25a3,3,0,0,0,0,6,2.82,2.82,0,0,0,1.91-.72L14.18,18a4,4,0,0,0-.12.84,3,3,0,1,0,6,0A3.1,3.1,0,0,0,17,15.82Z" transform="translate(-3.97 -2.14)" fill="#eee"/></g></g></g>
    </symbol>

    <!-- TVGUIDE BACK ICON -->
    <symbol viewBox="0 0 22.66 15.65" id="tvguide_back_icon">
        <title>tvguide_back_icon</title>  
        <g id="Layer_2" data-name="Layer 2"><g id="Layer_1-2" data-name="Layer 1"><polyline points="6.03 15.34 0.66 7.82 6.03 0.31" fill="none" stroke="#eee" stroke-miterlimit="10" stroke-width="1.07"/><path d="M.66,7.82h22" fill="none" stroke="#eee" stroke-miterlimit="10" stroke-width="1.09"/></g></g>
    </symbol>

    <!-- VOLUME ICON -->
    <symbol viewBox="0 0 44 44" id="volume_icon">
        <title>volume_icon</title>  
        <defs><style>.volume_icon-cls-1{fill:#eee;}</style></defs>
        <path class="volume_icon-cls-1" d="M13.65,18.24v7.52h5L24.93,32V12l-6.24,6.24Zm16.69,4.12a5.53,5.53,0,0,0-3.16-5v10A5.34,5.34,0,0,0,30.35,22.36Z"/>
    </symbol>

    <!-- WATCH LATER ICON NORMAL ICON -->
    <symbol viewBox="0 0 16.6 16.6" id="watch_later_icon_normal_icon">
        <title>watch_later_icon_normal_icon</title>  
        <defs><clipPath id="watch_later_icon_normal_icon-clip-path" transform="translate(-3.7 -3.7)"><rect width="24" height="24" fill="none"/></clipPath></defs>
        <g id="Layer_2" data-name="Layer 2"><g id="Layer_1-2" data-name="Layer 1"><g clip-path="url(#watch_later_icon_normal_icon-clip-path)"><path d="M12,20.3A8.3,8.3,0,1,1,20.3,12,8.32,8.32,0,0,1,12,20.3ZM12,4.89A7.11,7.11,0,1,0,19.11,12,7.13,7.13,0,0,0,12,4.89Z" transform="translate(-3.7 -3.7)" fill="#eee"/><polygon points="11.44 12.42 7.29 8.62 7.29 4.12 8.47 4.12 8.47 8.15 12.21 11.53 11.44 12.42" fill="#eee"/></g></g></g>
    </symbol>
    
    <!-- WATCH LATER ICON SELECTED ICON -->
    <symbol viewBox="0 0 16.6 16.6" id="watch_later_icon_selected_icon">
        <title>watch_later_icon_selected_icon</title>  
        <defs><clipPath id="watch_later_icon_selected_icon-clip-path" transform="translate(-3.7 -3.7)"><rect width="24" height="24" fill="none"/></clipPath></defs>
        <g id="Layer_2" data-name="Layer 2"><g id="Layer_1-2" data-name="Layer 1"><g clip-path="url(#watch_later_icon_selected_icon-clip-path)"><path d="M12,3.7A8.3,8.3,0,1,0,20.3,12,8.32,8.32,0,0,0,12,3.7Zm3.14,12.42L11,12.33V7.82h1.19v4l3.73,3.38Z" transform="translate(-3.7 -3.7)" fill="#eee"/></g></g></g>
    </symbol>

    <!-- define view locations for each icon -->
    <view viewBox="0 0 35 35" id="fb_icon-view" />
    <view viewBox="0 36 35 35" id="twitter_icon-view" />
    <view viewBox="0 72 35 35" id="insta_icon-view" />
    <view viewBox="0 108 35 35" id="back_icon-view"  />
    <view viewBox="0 144 35 35" id="cast_icon-view" />
    <view viewBox="0 180 35 35" id="CC_icon-view" />
    <view viewBox="0 216 35 35" id="collapse_screen_icon-view" />
    <view viewBox="0 252 35 35" id="expand_screen_icon-view" />
    <view viewBox="0 288 35 35" id="fav_icon_normal-view" />
    <view viewBox="0 324 35 35" id="fav_icon_selected-view" />
    <view viewBox="0 360 35 35" id="forward_icon-view" />
    <view viewBox="0 396 35 35" id="full_volume_icon-view" />
    <view viewBox="0 432 35 35" id="ic_expand-view" />
    <view viewBox="0 468 35 35" id="modal_close_icon-view" />
    <view viewBox="0 504 35 35" id="more_icon-view" />
    <view viewBox="0 540 35 35" id="mute_icon-view" />
    <view viewBox="0 576 35 35" id="next_icon-view" />
    <view viewBox="0 612 35 35" id="pause_icon-view" />
    <view viewBox="0 648 35 35" id="play_icon-view" />
    <view viewBox="0 684 35 35" id="quality_icon-view" />
    <view viewBox="0 720 35 35" id="replay_icon-view" />
    <view viewBox="0 756 35 35" id="rewind_icon-view" />
    <view viewBox="0 792 35 35" id="selection_tick_icon-view" />
    <view viewBox="0 828 35 35" id="share_icon-view" />
    <view viewBox="0 864 35 35" id="tvguide_back_icon-view" />
    <view viewBox="0 900 35 35" id="volume_icon-view" />
    <view viewBox="0 936 35 35" id="watch_later_icon_normal_icon-view" />
    <view viewBox="0 972 35 35" id="watch_later_icon_selected_icon-view" />

	<use width="35" height="35" x="0" y="0" xlink:href="#fb_icon"></use>
	<use width="35" height="35" x="0" y="36" xlink:href="#twitter_icon"></use>
    <use width="35" height="35" x="0" y="72" xlink:href="#insta_icon"></use>
    <use width="35" height="35" x="0" y="108" xlink:href="#back_icon" ></use>
    <use width="35" height="35" x="0" y="144" xlink:href="#cast_icon"></use>
    <use width="35" height="35" x="0" y="180" xlink:href="#CC_icon" ></use>
    <use width="35" height="35" x="0" y="216" xlink:href="#collapse_screen_icon" ></use>
    <use width="35" height="35" x="0" y="252" xlink:href="#expand_screen_icon" ></use>
    <use width="35" height="35" x="0" y="288" xlink:href="#fav_icon_normal" ></use>
    <use width="35" height="35" x="0" y="324" xlink:href="#fav_icon_selected" ></use>
    <use width="35" height="35" x="0" y="360" xlink:href="#forward_icon" ></use>
    <use width="35" height="35" x="0" y="396" xlink:href="#full_volume_icon" ></use>
    <use width="35" height="35" x="0" y="432" xlink:href="#ic_expand" ></use>
    <use width="35" height="35" x="0" y="468" xlink:href="#modal_close_icon" ></use>
    <use width="35" height="35" x="0" y="504" xlink:href="#more_icon" ></use>
    <use width="35" height="35" x="0" y="540" xlink:href="#mute_icon" ></use>
    <use width="35" height="35" x="0" y="576" xlink:href="#next_icon" ></use>
    <use width="35" height="35" x="0" y="612" xlink:href="#pause_icon" ></use>
    <use width="35" height="35" x="0" y="648" xlink:href="#play_icon" ></use>
    <use width="35" height="35" x="0" y="684" xlink:href="#quality_icon" ></use>
    <use width="35" height="35" x="0" y="720" xlink:href="#replay_icon" ></use>
    <use width="35" height="35" x="0" y="756" xlink:href="#rewind_icon" ></use>
    <use width="35" height="35" x="0" y="792" xlink:href="#selection_tick_icon" ></use>
    <use width="35" height="35" x="0" y="828" xlink:href="#share_icon" ></use>
    <use width="35" height="35" x="0" y="864" xlink:href="#tvguide_back_icon" ></use>
    <use width="35" height="35" x="0" y="900" xlink:href="#volume_icon" ></use>
    <use width="35" height="35" x="0" y="936" xlink:href="#watch_later_icon_normal_icon" ></use>
    <use width="35" height="35" x="0" y="972" xlink:href="#watch_later_icon_selected_icon" ></use>
</svg>