<?xml version="1.0" encoding="utf-8"?>
<!-- Generator: Adobe Illustrator 21.1.0, SVG Export Plug-In . SVG Version: 6.00 Build 0)  -->
<svg version="1.1" id="Layer_1" xmlns="http://www.w3.org/2000/svg" xmlns:xlink="http://www.w3.org/1999/xlink" x="0px" y="0px"
	 viewBox="0 0 44 44" style="enable-background:new 0 0 44 44;" xml:space="preserve">
<style type="text/css">
	.st0{fill:#6E6E6E;}
	.st1{fill:#FFFFFF;}
</style>
<path class="st0" d="M40.3,0H3.7C1.6,0,0,1.6,0,3.7v36.7c0,2,1.6,3.7,3.7,3.7h36.7c2,0,3.7-1.6,3.7-3.7V3.7C44,1.6,42.4,0,40.3,0z"
	/>
<title>mail_icon</title>
<g>
	<polygon class="st1" points="22,27 11.1,16.6 12,15.7 22,25.3 32,15.7 32.9,16.6 	"/>
	<path class="st1" d="M34.5,33h-25c-1,0-1.8-0.8-1.8-1.8V12.8c0-1,0.8-1.8,1.8-1.8h25.1c1,0,1.8,0.8,1.8,1.8v18.4
		C36.3,32.2,35.5,33,34.5,33z M9.5,12.3c-0.3,0-0.6,0.3-0.6,0.6v18.3c0,0.3,0.3,0.6,0.6,0.6h25.1c0.3,0,0.6-0.3,0.6-0.6V12.8
		c0-0.3-0.3-0.6-0.6-0.6L9.5,12.3L9.5,12.3z"/>
</g>
</svg>
