<?xml version="1.0" encoding="utf-8"?>
<!-- Generator: Adobe Illustrator 23.0.1, SVG Export Plug-In . SVG Version: 6.00 Build 0)  -->
<svg version="1.1" id="Layer_1" xmlns="http://www.w3.org/2000/svg" xmlns:xlink="http://www.w3.org/1999/xlink" x="0px" y="0px"
	 viewBox="0 0 40 40" style="enable-background:new 0 0 40 40;" xml:space="preserve">
<style type="text/css">
	.st0{fill-rule:evenodd;clip-rule:evenodd;fill:#bf006b;}
</style>
<g>
	<path class="st0" d="M38.1,39.9H19.4c-0.7,0-1.2-0.5-1.2-1.2c0-0.6,0.6-1.2,1.2-1.2h18.8c0.7,0,1.2,0.5,1.2,1.2
		C39.3,39.4,38.8,39.9,38.1,39.9"/>
	<path class="st0" d="M20,0C9,0,0,9,0,20s9,20,20,20s20-9,20-20S31,0,20,0z M20,37.5c-9.7,0-17.5-7.8-17.5-17.5S10.3,2.5,20,2.5
		S37.5,10.3,37.5,20S29.7,37.5,20,37.5z"/>
	<path class="st0" d="M19.9,6.7c-2.4,0-4.4,2-4.4,4.4s2,4.4,4.4,4.4s4.4-2,4.4-4.4l0,0C24.3,8.7,22.3,6.7,19.9,6.7z M19.9,12.9
		c-1,0-1.9-0.9-1.9-1.9s0.9-1.9,1.9-1.9l0,0c1,0,1.9,0.9,1.9,1.9S20.9,12.9,19.9,12.9z"/>
	<path class="st0" d="M19.9,24.3c-2.4,0-4.4,2-4.4,4.4s2,4.4,4.4,4.4c0,0,0,0,0.1,0c2.4,0,4.4-2,4.3-4.4l0,0
		C24.3,26.3,22.3,24.3,19.9,24.3z M19.9,30.6c-1,0-1.9-0.9-1.9-1.9s0.9-1.9,1.9-1.9s1.9,0.9,1.9,1.9S20.9,30.6,19.9,30.6z"/>
	<path class="st0" d="M11.1,15.5c-2.4,0-4.4,2-4.4,4.4s2,4.4,4.4,4.4s4.4-2,4.4-4.4l0,0C15.5,17.5,13.5,15.5,11.1,15.5z M11.1,21.8
		c-1,0-1.9-0.9-1.9-1.9s0.9-1.9,1.9-1.9s1.9,0.9,1.9,1.9S12.1,21.8,11.1,21.8z"/>
	<path class="st0" d="M28.7,15.5c-2.4,0-4.4,2-4.4,4.4s2,4.4,4.4,4.4c0,0,0,0,0.1,0c2.4,0,4.4-2,4.3-4.4l0,0
		C33.1,17.5,31.1,15.5,28.7,15.5z M28.7,21.8c-1,0-1.9-0.9-1.9-1.9s0.9-1.9,1.9-1.9l0,0c1,0,1.9,0.9,1.9,1.9S29.7,21.8,28.7,21.8z"
		/>
</g>
</svg>
