<?xml version="1.0" encoding="utf-8"?>
<!-- Generator: Adobe Illustrator 23.0.1, SVG Export Plug-In . SVG Version: 6.00 Build 0)  -->
<svg version="1.1" id="Layer_1" xmlns="http://www.w3.org/2000/svg" xmlns:xlink="http://www.w3.org/1999/xlink" x="0px" y="0px"
	 viewBox="0 0 39.8 31.5" style="enable-background:new 0 0 39.8 31.5;" xml:space="preserve">
<style type="text/css">
	.st0{fill-rule:evenodd;clip-rule:evenodd;fill:#DDDDDD;}
</style>
<path id="Premium" class="st0" d="M34.7,21.7H5.4c-0.6,0-1.1-0.4-1.2-1L0,2.6c-0.1-0.5,0.1-1,0.6-1.3C1,1,1.6,1,2,1.4l10.5,8.4
	l6.6-9.3c0.2-0.3,0.6-0.5,1-0.5c0.4,0,0.8,0.2,1,0.6l6,9.2l10.7-8.2c0.4-0.3,0.9-0.3,1.4-0.1c0.4,0.3,0.6,0.8,0.5,1.3l-4,17.9
	c0.1,0.5-0.3,0.9-0.8,1C34.9,21.7,34.8,21.7,34.7,21.7 M6.4,19.2h27.3l3-13.6l-9,6.9c-0.3,0.2-0.7,0.3-1,0.2
	c-0.3-0.1-0.6-0.3-0.8-0.5l-5.8-8.8l-6.3,8.9c-0.4,0.5-1.1,0.7-1.7,0.3c0,0-0.1-0.1-0.1-0.1l-8.8-7L6.4,19.2z M34.1,31.5H5.8
	c-0.7,0-1.2-0.5-1.2-1.2c0-0.6,0.6-1.2,1.2-1.2h28.3c0.7,0,1.2,0.5,1.2,1.2C35.3,31,34.8,31.5,34.1,31.5"/>
</svg>
