<svg id="Layer_1" data-name="Layer 1" xmlns="http://www.w3.org/2000/svg" viewBox="0 0 44 44"><defs><style>.cls-1{fill:#eee;}</style></defs><title>CC_icon</title><path class="cls-1" d="M35,11H9a4,4,0,0,0-4,4V29a4,4,0,0,0,4,4H35a4,4,0,0,0,4-4V15A4,4,0,0,0,35,11ZM20.25,26.79a9.38,9.38,0,0,1-1.2.9c-.5.2-.9.4-1.5.6a7.72,7.72,0,0,1-1.5.2,4.75,4.75,0,0,1-2.4-.6,8.47,8.47,0,0,1-1.9-1.4,8.17,8.17,0,0,1-1.2-2,6.2,6.2,0,0,1-.4-2.3,5.7,5.7,0,0,1,.4-2.2,8.17,8.17,0,0,1,1.2-2,5.53,5.53,0,0,1,1.9-1.4,5.1,5.1,0,0,1,2.5-.5,5.43,5.43,0,0,1,2.9.7,4.69,4.69,0,0,1,1.8,1.9L19,19.89l-.6-.9c-.2-.2-.5-.4-.7-.6s-.5-.2-.8-.3a2.49,2.49,0,0,0-.8-.1,2.93,2.93,0,0,0-1.6.4,4.81,4.81,0,0,0-1.1.9,5.39,5.39,0,0,0-.7,1.3,7.72,7.72,0,0,0-.2,1.5,4.53,4.53,0,0,0,.3,1.6,5.39,5.39,0,0,0,.7,1.3,3.13,3.13,0,0,0,1.1.9,3.34,3.34,0,0,0,1.5.3,2.77,2.77,0,0,0,.9-.1l.9-.3a1.34,1.34,0,0,0,.7-.6,3.49,3.49,0,0,0,.6-.9l1.9,1.1A8.51,8.51,0,0,1,20.25,26.79Zm11.8,0a9.38,9.38,0,0,1-1.2.9c-.5.2-.9.4-1.5.6a7.72,7.72,0,0,1-1.5.2,4.75,4.75,0,0,1-2.4-.6,8.47,8.47,0,0,1-1.9-1.4,8.17,8.17,0,0,1-1.2-2,6.2,6.2,0,0,1-.4-2.3,5.7,5.7,0,0,1,.4-2.2,8.17,8.17,0,0,1,1.2-2,5.53,5.53,0,0,1,1.9-1.4,5.1,5.1,0,0,1,2.5-.5,5.43,5.43,0,0,1,2.9.7,4.69,4.69,0,0,1,1.8,1.9l-1.8,1.2-.6-.9c-.2-.2-.5-.4-.7-.6s-.5-.2-.8-.3a2.49,2.49,0,0,0-.8-.1,2.93,2.93,0,0,0-1.6.4,4.81,4.81,0,0,0-1.1.9,5.39,5.39,0,0,0-.7,1.3,7.72,7.72,0,0,0-.2,1.5,4.53,4.53,0,0,0,.3,1.6,5.39,5.39,0,0,0,.7,1.3,3.13,3.13,0,0,0,1.1.9,3.34,3.34,0,0,0,1.5.3,2.77,2.77,0,0,0,.9-.1l.9-.3a1.34,1.34,0,0,0,.7-.6,3.49,3.49,0,0,0,.6-.9l1.9,1.1A8.51,8.51,0,0,1,32,26.79Z"/></svg>