<svg id="Layer_1" data-name="Layer 1" xmlns="http://www.w3.org/2000/svg" viewBox="0 0 44 44"><defs><style>.cls-1{fill:#eee;}</style></defs><title>forward</title><path class="cls-1" d="M20.49,8.54,17.27,5.32,18.6,4,24,9.39,18.6,14.78l-1.32-1.32,2.93-2.93A11.52,11.52,0,1,0,33.54,21.87h1.89A13.43,13.43,0,1,1,20.49,8.54Z"/><path class="cls-1" d="M17.91,26.6H19.8V17.14H17.93a9.74,9.74,0,0,1-1.13,1.18,3.22,3.22,0,0,1-1.73.85v1.61a7.56,7.56,0,0,0,2.84-1.42Z"/><path class="cls-1" d="M25.22,26.46a2.61,2.61,0,0,0,2.17-.95c.66-.76.95-2.08.95-3.88s-.28-3.12-.95-3.88a2.5,2.5,0,0,0-2.17-.95,2.61,2.61,0,0,0-2.17.95c-.66.76-.95,2.08-.95,3.88a6.18,6.18,0,0,0,.85,3.78A3,3,0,0,0,25.22,26.46Zm-.95-7.19a1.42,1.42,0,0,1,.38-.76.69.69,0,0,1,.57-.19,1.34,1.34,0,0,1,.57.19c.19.09.28.38.38.85a11.08,11.08,0,0,1,.19,2.27A12.24,12.24,0,0,1,26.16,24a1.42,1.42,0,0,1-.38.76,1.34,1.34,0,0,1-.57.19,1.34,1.34,0,0,1-.57-.19c-.19-.09-.28-.38-.38-.85a10.38,10.38,0,0,1-.19-2.27A7.5,7.5,0,0,1,24.27,19.27Z"/></svg>