<?xml version="1.0" encoding="UTF-8"?>
<svg width="48px" height="48px" viewBox="0 0 48 48" version="1.1" xmlns="http://www.w3.org/2000/svg" xmlns:xlink="http://www.w3.org/1999/xlink">
    <!-- Generator: Sketch 53.2 (72643) - https://sketchapp.com -->
    <title>ic_play</title>
    <desc>Created with Sketch.</desc>
    <g id="ic_play" stroke="none" stroke-width="1" fill="none" fill-rule="evenodd">
        <circle id="Oval" fill="#000000" opacity="0.5" cx="24" cy="24" r="24"></circle>
        <g id="Group" transform="translate(3.000000, 3.000000)" fill="#FFFFFF" fill-rule="nonzero">
            <path d="M34.6116976,7.38918424 C27.0941039,-0.129651419 14.9059526,-0.129651419 7.3889287,7.38923534 C-0.129651419,14.9059526 -0.129651419,27.0934265 7.38923534,34.6110713 C14.9059526,42.1296514 27.0941039,42.1296514 34.6116465,34.6108669 C42.1296685,27.0934659 42.1296685,14.9059132 34.6116976,7.38918424 Z M35.8490323,6.15164516 C44.0505484,14.3518065 44.0505484,27.6475161 35.8490323,35.8483548 C27.6481935,44.0505484 14.3518065,44.0505484 6.15164516,35.8483548 C-2.05054839,27.6475161 -2.05054839,14.3518065 6.15164516,6.15164516 C14.3518065,-2.05054839 27.6481935,-2.05054839 35.8490323,6.15164516 Z" id="Stroke-3-Copy"></path>
            <path d="M15.5796514,30.7921847 C14.8834648,31.206088 14,30.7054751 14,29.8966364 L14,11.5446686 C14,10.7351525 14.8834648,10.2338622 15.5796514,10.6491202 L30.9900739,19.8247654 C31.6699754,20.2291847 31.6699754,21.2114428 30.9900739,21.6158622 L15.5796514,30.7921847 Z" id="Stroke-9"></path>
        </g>
    </g>
</svg>