<svg id="Layer_1" data-name="Layer 1" xmlns="http://www.w3.org/2000/svg" viewBox="0 0 44 44"><title>2</title><g id="ic_quality"><path d="M33,21.29a.93.93,0,0,0-.75-.78l-1.49-.21a1.21,1.21,0,0,1-.89-.75l-.56-1.36A1.2,1.2,0,0,1,29.37,17l.91-1.21a.88.88,0,0,0,0-1.07l-1-1a.89.89,0,0,0-1.07,0L27,14.63a1.19,1.19,0,0,1-1.16.09l-1.36-.56a1.19,1.19,0,0,1-.75-.89l-.21-1.49a.93.93,0,0,0-.78-.75s-.23,0-.71,0-.7,0-.7,0a.93.93,0,0,0-.78.75l-.21,1.49a1.2,1.2,0,0,1-.75.89l-1.36.56A1.19,1.19,0,0,1,17,14.63l-1.21-.91a.88.88,0,0,0-1.07,0l-1,1a.88.88,0,0,0,0,1.07L14.63,17a1.19,1.19,0,0,1,.09,1.16l-.56,1.36a1.2,1.2,0,0,1-.89.75l-1.49.21a.93.93,0,0,0-.75.78s0,.23,0,.71,0,.71,0,.71a.93.93,0,0,0,.75.78l1.49.21a1.21,1.21,0,0,1,.89.75l.56,1.36A1.19,1.19,0,0,1,14.63,27l-.91,1.21a.82.82,0,0,0-.12.91c.16.2.62.69.62.69l.34.32c.19.17,1,.41,1.26.19L17,29.37a1.19,1.19,0,0,1,1.16-.09l1.36.56a1.2,1.2,0,0,1,.75.89l.21,1.49a.93.93,0,0,0,.78.75s.23,0,.71,0,.71,0,.71,0a.93.93,0,0,0,.78-.75l.21-1.49a1.2,1.2,0,0,1,.75-.89l1.36-.56a1.19,1.19,0,0,1,1.16.09l1.21.91a.89.89,0,0,0,1.07,0l1-1a.89.89,0,0,0,0-1.07L29.37,27a1.2,1.2,0,0,1-.09-1.16l.56-1.36a1.2,1.2,0,0,1,.89-.75l1.49-.21a.93.93,0,0,0,.75-.78s0-.23,0-.71S33,21.29,33,21.29ZM22,26.08A4.09,4.09,0,1,1,26.09,22,4.09,4.09,0,0,1,22,26.08Z" fill="#eee" fill-rule="evenodd"/></g></svg>