<svg xmlns="http://www.w3.org/2000/svg" xmlns:xlink="http://www.w3.org/1999/xlink" viewBox="0 0 16.07 19.71"><defs><clipPath id="clip-path" transform="translate(-3.97 -2.14)"><rect width="24" height="24" fill="none"/></clipPath></defs><title>share_icon</title><g id="Layer_2" data-name="Layer 2"><g id="Layer_1-2" data-name="Layer 1"><g clip-path="url(#clip-path)"><path d="M17,15.82a3,3,0,0,0-2.27,1.08l-5.14-3.4a2.81,2.81,0,0,0,0-2.75L14.9,7.22A3,3,0,0,0,20,5.13a3,3,0,0,0-6,0,2.42,2.42,0,0,0,.24,1.13L8.8,9.91A2.92,2.92,0,0,0,7,9.25a3,3,0,0,0,0,6,2.82,2.82,0,0,0,1.91-.72L14.18,18a4,4,0,0,0-.12.84,3,3,0,1,0,6,0A3.1,3.1,0,0,0,17,15.82Z" transform="translate(-3.97 -2.14)" fill="#eee"/></g></g></g></svg>