<?xml version="1.0" encoding="utf-8"?>
<!-- Generator: Adobe Illustrator 21.1.0, SVG Export Plug-In . SVG Version: 6.00 Build 0)  -->
<svg version="1.1" id="Layer_1" xmlns="http://www.w3.org/2000/svg" xmlns:xlink="http://www.w3.org/1999/xlink" x="0px" y="0px"
	 viewBox="0 0 274.5 220.6" style="enable-background:new 0 0 274.5 220.6;" xml:space="preserve">
<style type="text/css">
	.st0{fill:none;stroke:#535053;stroke-width:4;stroke-miterlimit:10;}
	.st1{fill:#F1F0F0;}
	.st2{fill:#4D4A4E;}
	.st3{fill:none;stroke:#535053;stroke-width:4;stroke-linecap:round;stroke-miterlimit:10;}
	.st4{fill:#1C111F;}
	.st5{fill:#BF1E6E;}
	.st6{fill:#EEEDEE;}
	.st7{fill:#848284;}
	.st8{fill:#848284;stroke:#848284;stroke-width:2;stroke-linecap:round;stroke-linejoin:round;stroke-miterlimit:10;}
	.st9{fill:#0B0A0C;}
</style>
<g>
	<path class="st0" d="M214.9,181.6H103.1c-5.3,0-9.6-4.3-9.6-9.6V85.6c0-3.6,3-6.6,6.6-6.6h114.8c5.3,0,9.6,4.3,9.6,9.6V172
		C224.5,177.3,220.2,181.6,214.9,181.6z"/>
	<path class="st1" d="M34.8,62.5c-1.7-0.2-4.6-3.4-6-2.2c-1.4,1.1,1.2,4.6,1,6.3s-3.4,4.6-2.2,6c1.1,1.4,4.6-1.2,6.3-1
		c1.7,0.2,4.6,3.4,6,2.2c1.4-1.1-1.2-4.6-1-6.3s3.4-4.6,2.2-6S36.4,62.6,34.8,62.5z"/>
	<path class="st1" d="M89.9,30.6c-0.9-0.5-1.7-2.9-2.7-2.6c-1,0.3-0.4,2.8-0.9,3.6c-0.5,0.9-2.9,1.7-2.6,2.7s2.8,0.4,3.6,0.9
		s1.7,2.9,2.7,2.6c1-0.3,0.4-2.8,0.9-3.6c0.5-0.9,2.9-1.7,2.6-2.7C93.2,30.5,90.7,31.1,89.9,30.6z"/>
	<path class="st1" d="M51.7,119.7c-0.1-0.7,0.8-2.1,0.2-2.6s-1.6,1-2.3,1.1c-0.7,0.1-2.1-0.8-2.6-0.2c-0.4,0.6,1,1.6,1.1,2.3
		c0.1,0.7-0.8,2.1-0.2,2.6c0.6,0.4,1.6-1,2.3-1.1c0.7-0.1,2.1,0.8,2.6,0.2C53.2,121.4,51.8,120.4,51.7,119.7z"/>
	<path class="st2" d="M60.2,39.9c-2,0-3.5,1.5-3.5,3.5s1.5,3.5,3.5,3.5s3.5-1.5,3.5-3.5S62.1,39.9,60.2,39.9z"/>
	<path class="st2" d="M72.6,137.4c-1.4,0-2.5,1.1-2.5,2.5s1.1,2.5,2.5,2.5s2.5-1.1,2.5-2.5S74,137.4,72.6,137.4z"/>
	<path class="st2" d="M34.3,95.6c-1.1,0-2,0.9-2,2s0.9,2,2,2s2-0.9,2-2S35.4,95.6,34.3,95.6z"/>
	<path class="st3" d="M113.6,68.9V35.2c0-7.5,6.7-13.6,15-13.6h61.5c8.2,0,15,6.1,15,13.6v33.7"/>
	<g>
		<g>
			<path class="st4" d="M86.9,55.1c18,0,32.6,14.6,32.6,32.6s-14.6,32.6-32.6,32.6s-32.6-14.6-32.6-32.6S68.9,55.1,86.9,55.1z"/>
		</g>
		<g>
			<path class="st5" d="M86.9,60.9c14.7,0,26.7,11.9,26.7,26.7c0,14.7-11.9,26.7-26.7,26.7c-14.7,0-26.7-11.9-26.7-26.7
				C60.2,72.9,72.2,60.9,86.9,60.9z"/>
		</g>
		<g>
			<path class="st6" d="M82,98c-1.5-1.6-3.1-3.1-4.7-4.7c-1.5-1.6-3.1-3.1-4.7-4.7l1.6-1.5c1.5,1.6,3.1,3.1,4.7,4.7
				c1,1,2.1,2.1,3.1,3.1c2.8-2.8,5.5-5.5,8.1-8.2c3.1-3.1,6.2-6.2,9.5-9.5l1.5,1.5c-3.3,3.3-6.5,6.5-9.5,9.5
				c-2.6,2.6-5.3,5.3-8.2,8.2l0,0L82,98z"/>
		</g>
	</g>
	<circle class="st7" cx="133.4" cy="117.8" r="3"/>
	<circle class="st7" cx="180.6" cy="117.8" r="3"/>
	<path class="st8" d="M158.4,139.9c5.2,0,9.5-4.3,9.5-9.5h-19C148.9,135.6,153.2,139.9,158.4,139.9z"/>
	<path class="st7" d="M240.1,199H132.9c-4,0-7.2-3.2-7.2-7.2v-25c0-4,3.2-7.2,7.2-7.2H240c4,0,7.2,3.2,7.2,7.2v25
		C247.3,195.8,244,199,240.1,199z"/>
	<g>
		<circle class="st9" cx="219.7" cy="179.3" r="4.6"/>
		<g>
			<circle class="st9" cx="153.1" cy="179.3" r="4.6"/>
			<circle class="st9" cx="175.2" cy="179.3" r="4.6"/>
			<circle class="st9" cx="197.2" cy="179.3" r="4.6"/>
		</g>
	</g>
</g>
</svg>
