<?xml version="1.0" encoding="utf-8"?>
<!-- Generator: Adobe Illustrator 21.1.0, SVG Export Plug-In . SVG Version: 6.00 Build 0)  -->
<svg version="1.1" id="Layer_1" xmlns="http://www.w3.org/2000/svg" xmlns:xlink="http://www.w3.org/1999/xlink" x="0px" y="0px"
	 viewBox="0 0 14 20.7" style="enable-background:new 0 0 14 20.7;" xml:space="preserve">
<style type="text/css">
	.st0{fill:#BF006B;}
	.st1{fill:#BBB7BC;}
	.st2{fill:#EEEEEE;}
	.st3{fill:#FFFFFF;}
	.st4{fill:none;stroke:#FFFFFF;stroke-miterlimit:10;}
	.st5{fill:#FFFFFF;stroke:#333333;stroke-width:2;stroke-miterlimit:10;}
	.st6{fill:#FFFFFF;stroke:#000000;stroke-width:3;stroke-miterlimit:10;}
	.st7{clip-path:url(#SVGID_2_);fill:#EEEEEE;}
	.st8{fill:#500130;}
	.st9{fill:none;stroke:#EEEEEE;stroke-width:2;stroke-miterlimit:10;}
	.st10{fill:none;stroke:#EEEEEE;stroke-miterlimit:10;}
	.st11{fill:none;stroke:#A6A6A6;stroke-width:1.0968;stroke-miterlimit:10;}
	.st12{fill:none;stroke:#8B848D;stroke-width:1.2;stroke-miterlimit:10;}
	.st13{fill:none;stroke:#231F20;stroke-width:3;stroke-miterlimit:10;}
	.st14{fill:#231F20;stroke:#FFFFFF;stroke-width:2;stroke-miterlimit:10;}
	.st15{fill:none;}
	.st16{fill:#231F20;}
	.st17{fill:#333333;}
	.st18{fill:#BF006B;stroke:#BF006B;stroke-width:0.8;stroke-miterlimit:10;}
	.st19{fill:#030202;}
	.st20{fill:#6E6E6E;}
	.st21{fill:none;stroke:#BF006B;stroke-width:2;stroke-miterlimit:10;}
	.st22{fill:#636363;}
	.st23{fill:none;stroke:#C0006B;stroke-width:2;stroke-miterlimit:10;}
</style>
<g>
	<path class="st8" d="M12,8.9V5c0-2.7-2.3-5-5-5S2,2.2,2,5v3.9c-1.2,1.3-2,3-2,4.9c0,3.9,3.2,7,7,7s7-3.2,7-7
		C14,11.9,13.3,10.1,12,8.9z M7,1.3c2.1,0,3.8,1.7,3.8,3.7v2.9C9.7,7.1,8.4,6.7,7,6.7c-1.4,0-2.7,0.4-3.8,1.1V4.9
		C3.2,2.9,5,1.3,7,1.3z M7,19.5c-3.2,0-5.7-2.6-5.7-5.7S3.8,8,7,8s5.7,2.6,5.7,5.7S10.2,19.5,7,19.5z"/>
	<circle class="st8" cx="7" cy="13.7" r="1"/>
</g>
</svg>
