<?xml version="1.0" encoding="utf-8"?>
<!-- Generator: Adobe Illustrator 21.1.0, SVG Export Plug-In . SVG Version: 6.00 Build 0)  -->
<svg version="1.1" id="Layer_1" xmlns="http://www.w3.org/2000/svg" xmlns:xlink="http://www.w3.org/1999/xlink" x="0px" y="0px"
	 viewBox="0 0 24 24" style="enable-background:new 0 0 24 24;" xml:space="preserve">
<style type="text/css">
	.st0{fill:#BF006B;}
	.st1{fill:#BBB7BC;}
	.st2{fill:#EEEEEE;}
	.st3{fill:#FFFFFF;}
	.st4{fill:none;stroke:#FFFFFF;stroke-miterlimit:10;}
	.st5{fill:#FFFFFF;stroke:#333333;stroke-width:2;stroke-miterlimit:10;}
	.st6{fill:#FFFFFF;stroke:#000000;stroke-width:3;stroke-miterlimit:10;}
	.st7{clip-path:url(#SVGID_2_);fill:#EEEEEE;}
	.st8{fill:#500130;}
	.st9{fill:none;stroke:#EEEEEE;stroke-width:2;stroke-miterlimit:10;}
	.st10{fill:none;stroke:#EEEEEE;stroke-miterlimit:10;}
	.st11{fill:none;stroke:#A6A6A6;stroke-width:1.0968;stroke-miterlimit:10;}
	.st12{fill:none;stroke:#8B848D;stroke-width:1.2;stroke-miterlimit:10;}
	.st13{fill:none;stroke:#231F20;stroke-width:3;stroke-miterlimit:10;}
	.st14{fill:#231F20;stroke:#FFFFFF;stroke-width:2;stroke-miterlimit:10;}
	.st15{fill:none;}
	.st16{fill:#231F20;}
	.st17{fill:#333333;}
	.st18{fill:#BF006B;stroke:#BF006B;stroke-width:0.8;stroke-miterlimit:10;}
	.st19{fill:#030202;}
	.st20{fill:#6E6E6E;}
	.st21{fill:none;stroke:#BF006B;stroke-width:2;stroke-miterlimit:10;}
	.st22{fill:#636363;}
	.st23{fill:none;stroke:#C0006B;stroke-width:2;stroke-miterlimit:10;}
</style>
<g>
	<path class="st2" d="M15.8,14.9c-0.7,0-1.3,0.3-1.7,0.8l-3.9-2.6c0.2-0.3,0.3-0.7,0.3-1c0-0.4-0.1-0.7-0.3-1l4-2.7
		c0.4,0.4,0.9,0.7,1.6,0.7c1.3,0,2.3-1,2.3-2.3s-1-2.3-2.3-2.3s-2.3,1-2.3,2.3c0,0.3,0,0.6,0.2,0.9l-4.1,2.7
		c-0.4-0.3-0.9-0.5-1.4-0.5c-1.3,0-2.3,1-2.3,2.3s1,2.3,2.3,2.3c0.5,0,1-0.2,1.4-0.5l4,2.7c0,0.2-0.1,0.4-0.1,0.6
		c0,1.3,1,2.3,2.3,2.3s2.3-1,2.3-2.3C18,15.9,17,14.9,15.8,14.9z"/>
</g>
</svg>
