<svg id="Layer_1" data-name="Layer 1" xmlns="http://www.w3.org/2000/svg" viewBox="0 0 44 44"><defs><style>.cls-1{fill:#eee;}</style></defs><title>rewind</title><path class="cls-1" d="M23.51,10.89l3.22-3.22L25.4,6.35,20,11.74l5.39,5.39,1.32-1.32L23.8,12.87A11.52,11.52,0,1,1,10.46,24.22H8.57A13.43,13.43,0,1,0,23.51,10.89Z"/><path class="cls-1" d="M17.5,29h1.89V19.49H17.53a9.74,9.74,0,0,1-1.13,1.18,3.22,3.22,0,0,1-1.73.85v1.61a7.56,7.56,0,0,0,2.84-1.42Z"/><path class="cls-1" d="M24.81,28.81A2.61,2.61,0,0,0,27,27.86c.66-.76.95-2.08.95-3.88s-.28-3.12-.95-3.88a2.5,2.5,0,0,0-2.17-.95,2.61,2.61,0,0,0-2.17.95c-.66.76-.95,2.08-.95,3.88a6.18,6.18,0,0,0,.85,3.78A3,3,0,0,0,24.81,28.81Zm-.95-7.19a1.42,1.42,0,0,1,.38-.76.69.69,0,0,1,.57-.19,1.34,1.34,0,0,1,.57.19c.19.09.28.38.38.85A11.08,11.08,0,0,1,25.95,24a12.24,12.24,0,0,1-.19,2.36,1.42,1.42,0,0,1-.38.76,1.34,1.34,0,0,1-.57.19,1.34,1.34,0,0,1-.57-.19c-.19-.09-.28-.38-.38-.85A10.38,10.38,0,0,1,23.68,24,7.5,7.5,0,0,1,23.87,21.62Z"/></svg>