<svg xmlns="http://www.w3.org/2000/svg" xmlns:xlink="http://www.w3.org/1999/xlink" viewBox="0 0 30 30"><defs><linearGradient id="linear-gradient" x1="15440.29" y1="-57707.39" x2="15440.29" y2="-58164.33" gradientTransform="matrix(0.03, 0, 0, -0.03, -422.67, -1627.08)" gradientUnits="userSpaceOnUse"><stop offset="0" stop-color="#fff"/><stop offset="0.99" stop-color="#f2f2f2"/><stop offset="1" stop-color="#e5e5e5"/></linearGradient></defs><title>google_icon</title><g id="Layer_2" data-name="Layer 2"><g id="Layer_1-2" data-name="Layer 1"><path d="M27.5,0H2.5A2.51,2.51,0,0,0,0,2.5v25A2.51,2.51,0,0,0,2.5,30h25A2.51,2.51,0,0,0,30,27.5V2.5A2.51,2.51,0,0,0,27.5,0Z" fill="#df4a32"/><g id="Warstwa_1"><path d="M21.21,12.35H23c0,.59,0,1.18,0,1.77h1.77v1.76H23c0,.59,0,1.18,0,1.77H21.2c0-.59,0-1.18,0-1.77H19.42V14.13h1.77c0-.59,0-1.18,0-1.77ZM5.26,15a6.22,6.22,0,0,1,10.32-4.66c-.5.56-1,1.11-1.57,1.62a4.34,4.34,0,0,0-3.66-.71A3.91,3.91,0,1,0,13,18.62a3.42,3.42,0,0,0,2-2.34c-1.18,0-2.36,0-3.55,0,0-.7,0-1.41,0-2.11,2,0,4,0,5.93,0a7,7,0,0,1-1.25,5,6.11,6.11,0,0,1-6.68,1.78A6.19,6.19,0,0,1,5.26,15Z" fill="url(#linear-gradient)"/></g></g></g></svg>