<svg xmlns="http://www.w3.org/2000/svg" viewBox="0 0 44 44"><title>mail_icon</title><g id="Layer_2" data-name="Layer 2"><g id="Layer_1-2" data-name="Layer 1"><rect width="44" height="44" fill="#6e6e6e" opacity="0"/><polygon points="22 27.01 11.12 16.62 11.98 15.71 22 25.3 32.02 15.71 32.88 16.62 22 27.01" fill="#6e6e6e"/><path d="M34.47,33h-25a1.83,1.83,0,0,1-1.83-1.82V12.82A1.83,1.83,0,0,1,9.47,11H34.53a1.83,1.83,0,0,1,1.83,1.82V31.18A1.88,1.88,0,0,1,34.47,33Zm-25-20.72a.61.61,0,0,0-.61.61V31.17a.61.61,0,0,0,.61.6H34.53a.61.61,0,0,0,.61-.6V12.83a.61.61,0,0,0-.61-.6H9.47Z" fill="#6e6e6e"/></g></g></svg>