<?xml version="1.0" encoding="UTF-8"?>
<svg width="48px" height="48px" viewBox="0 0 48 48" version="1.1" xmlns="http://www.w3.org/2000/svg" xmlns:xlink="http://www.w3.org/1999/xlink">
    <!-- Generator: Sketch 57.1 (83088) - https://sketch.com -->
    <title>ic_replay</title>
    <desc>Created with Sketch.</desc>
    <g id="ic_replay" stroke="none" stroke-width="1" fill="none" fill-rule="evenodd">
        <circle id="Oval" fill="#000000" fill-rule="nonzero" opacity="0.5" cx="24" cy="24" r="24"></circle>
        <g transform="translate(23.666667, 23.000000) scale(-1, 1) translate(-23.666667, -23.000000) translate(8.000000, 7.000000)" fill="#FFFFFF" fill-rule="nonzero" id="Combined-Shape">
            <path d="M9.68173411,5.7209376 C3.78937035,8.48016385 0.843864545,15.1808638 3.0699343,21.3075639 C5.45950637,27.8777329 12.9059715,31.3379367 19.6790118,29.0195852 C22.9584668,27.8958098 25.5908752,25.599301 27.0913403,22.5541109 C28.5918054,19.5081675 28.7803333,16.0773386 27.6235631,12.8943128 C26.4070537,9.54934878 23.7800762,6.83933291 20.4152793,5.45946936 C19.8233171,5.21618556 19.546344,4.553369 19.7961629,3.97867692 C20.0467577,3.40473803 20.7294925,3.13358581 21.3214547,3.37762281 C25.2875237,5.00528937 28.3846573,8.19961324 29.8176248,12.1426186 C32.6346819,19.8885338 28.4335349,28.4155182 20.4532952,31.1496364 C18.7712848,31.7265881 17.0520343,32 15.3614896,32 C9.03533029,32.0007532 3.09786437,28.1722343 0.875872677,22.0592581 C-1.84604429,14.5721551 1.98708336,6.35615195 9.45025204,3.34558476 L6.81226654,2.28281359 C6.23906547,2.05162165 5.95024323,1.37062772 6.16797076,0.761193188 C6.3856983,0.152545025 7.02777236,-0.154138158 7.60023286,0.07705378 L12.265823,1.95647124 C12.5442772,2.06892174 12.7686699,2.2946091 12.8879016,2.58399221 C13.007874,2.87258894 13.0137985,3.20050404 12.9049347,3.49460535 L11.0535101,8.44871831 C10.8802168,8.91110219 10.4625354,9.19340799 10.0204152,9.19340799 C9.88340973,9.19340799 9.74492317,9.1666715 9.61013945,9.11005307 C9.04064124,8.86942472 8.76144639,8.18371259 8.98732021,7.57820989 L9.68173411,5.7209376 Z"></path>
        </g>
    </g>
</svg>